{"title":"Star Trek Into Darkness 2013 HDRip XviD UNiQUE","uid":8831532,"size":1521614848,"categoryP":"video","categoryS":"movies","magnet":"?xt=urn:btih:bd370ee9bf06fec5ac82ddbaf761638f592f39e6&amp;dn=Star+Trek+Into+Darkness+2013+HDRip+XviD+UNiQUE&amp;tr=udp%3A%2F%2Ftracker.openbittorrent.com%3A80&amp;tr=udp%3A%2F%2Fopen.demonii.com%3A1337&amp;tr=udp%3A%2F%2Ftracker.coppersurfer.tk%3A6969&amp;tr=udp%3A%2F%2Fexodus.desync.com%3A6969","seeders":3,"leechers":0,"uploader":"TeX","files":3,"time":1376995419,"description":"[img]http://media.metalhammer.co.uk/wp-content/uploads/2012/12/star-trek-into-darkness-poster.jpg[/img] &lt;a href=&quot;\nhttp://www.imdb.com/title/tt1408101&quot; rel=&quot;nofollow&quot; target=&quot;_NEW&quot;&gt;\nhttp://www.imdb.com/title/tt1408101&lt;/a&gt;\nFormat : AVI\nFormat/Info : Audio Video Interleave\nFile size : 1.41 GiB\nDuration : 2h 12mn\nOverall bit rate : 1 527 Kbps\nWriting application : VirtualDubMod 1.5.10.2 (build 2540/release)\nWriting library : VirtualDubMod build 2540/release\n\nVideo\nID : 0\nFormat : MPEG-4 Visual\nFormat profile : Advanced Simple@L5\nFormat settings, BVOP : 2\nFormat settings, QPel : No\nFormat settings, GMC : No warppoints\nFormat settings, Matrix : Default (H.263)\nMuxing mode : Packed bitstream\nCodec ID : XVID\nCodec ID/Hint : XviD\nDuration : 2h 12mn\nBit rate : 1 134 Kbps\nWidth : 720 pixels\nHeight : 304 pixels\nDisplay aspect ratio : 2.35:1\nFrame rate : 23.976 fps\nColor space : YUV\nChroma subsampling : 4:2:0\nBit depth : 8 bits\nScan type : Progressive\nCompression mode : Lossy\nBits/(Pixel*Frame) : 0.216\nStream size : 1.05 GiB (74%)\nWriting library : XviD 64\n\nAudio\nID : 1\nFormat : AC-3\nFormat/Info : Audio Coding 3\nMode extension : CM (complete main)\nFormat settings, Endianness : Big\nCodec ID : 2000\nDuration : 2h 12mn\nBit rate mode : Constant\nBit rate : 384 Kbps\nChannel(s) : 6 channels\nChannel positions : Front: L C R, Side: L R, LFE\nSampling rate : 48.0 KHz\nBit depth : 16 bits\nCompression mode : Lossy\nStream size : 363 MiB (25%)\nAlignment : Split accross interleaves\nInterleave, duration : 42 ms (1.00 video frame)\nInterleave, preload duration : 500 m\n\n\n","torrent":{"xt":"urn:btih:bd370ee9bf06fec5ac82ddbaf761638f592f39e6","amp;dn":"Star+Trek+Into+Darkness+2013+HDRip+XviD+UNiQUE","amp;tr":["udp%3A%2F%2Ftracker.openbittorrent.com%3A80","udp%3A%2F%2Fopen.demonii.com%3A1337","udp%3A%2F%2Ftracker.coppersurfer.tk%3A6969","udp%3A%2F%2Fexodus.desync.com%3A6969"],"infoHash":"bd370ee9bf06fec5ac82ddbaf761638f592f39e6","infoHashBuffer":{"type":"Buffer","data":[189,55,14,233,191,6,254,197,172,130,221,186,247,97,99,143,89,47,57,230]},"announce":[],"urlList":[]}}